<mxfile host="app.diagrams.net" modified="2023-01-30T09:58:48.394Z" agent="5.0 (X11)" etag="JvL11AM8oValjYWd9WIW" version="20.8.13" type="github">
  <diagram name="Page-1" id="qKY5A3b2yTyfuWQOkHwc">
    <mxGraphModel dx="1004" dy="671" grid="1" gridSize="10" guides="1" tooltips="1" connect="1" arrows="1" fold="1" page="1" pageScale="10" pageWidth="850" pageHeight="1100" math="0" shadow="0">
      <root>
        <mxCell id="0" />
        <mxCell id="1" parent="0" />
      </root>
    </mxGraphModel>
  </diagram>
</mxfile>
